<svg width="18" height="24" viewBox="0 0 18 24" fill="none" xmlns="http://www.w3.org/2000/svg">
<path d="M13.1761 11.3461V12.6271C13.1761 12.9291 12.9291 13.1761 12.6271 13.1761H4.94105C4.6391 13.1761 4.39204 12.9291 4.39204 12.6271V11.3461C4.39204 11.0442 4.6391 10.7971 4.94105 10.7971H12.6271C12.9291 10.7971 13.1761 11.0442 13.1761 11.3461ZM12.6271 14.6402H4.94105C4.6391 14.6402 4.39204 14.8872 4.39204 15.1892V16.4702C4.39204 16.7721 4.6391 17.0192 4.94105 17.0192H12.6271C12.9291 17.0192 13.1761 16.7721 13.1761 16.4702V15.1892C13.1761 14.8872 12.9291 14.6402 12.6271 14.6402ZM17.5682 6.03449V21.2282C17.5682 22.4406 16.5845 23.4242 15.3722 23.4242H2.19602C0.983635 23.4242 0 22.4406 0 21.2282V2.19602C0 0.983635 0.983635 0 2.19602 0H11.5337C12.1147 0 12.6729 0.233328 13.0846 0.645082L16.9231 4.48355C17.3349 4.89073 17.5682 5.45346 17.5682 6.03449ZM11.7121 2.37445V5.85606H15.1937L11.7121 2.37445ZM15.3722 21.2282V8.05208H10.6141C10.0056 8.05208 9.5161 7.56255 9.5161 6.95407V2.19602H2.19602V21.2282H15.3722Z" fill="#0d2c4c"/>
</svg>