<svg width="30" height="23" viewBox="0 0 30 23" fill="none" xmlns="http://www.w3.org/2000/svg">
<path d="M2 1.27173H7C7.55228 1.27173 8 1.71944 8 2.27173V20.2717C8 20.824 7.55228 21.2717 7 21.2717H2C1.44772 21.2717 1 20.824 1 20.2717V2.27173C1 1.71944 1.44771 1.27173 2 1.27173Z" stroke="#0d2c4c" stroke-width="2"/>
<path d="M9 1.27173H14C14.5523 1.27173 15 1.71944 15 2.27173V20.2717C15 20.824 14.5523 21.2717 14 21.2717H9C8.44772 21.2717 8 20.824 8 20.2717V2.27173C8 1.71944 8.44771 1.27173 9 1.27173Z" stroke="#0d2c4c" stroke-width="2"/>
<path d="M15.6175 2.99169L20.2363 1.07677C20.7465 0.865252 21.3315 1.10736 21.5431 1.61754L28.4368 18.2451C28.6483 18.7553 28.4062 19.3403 27.896 19.5519L23.2772 21.4668C22.7671 21.6783 22.182 21.4362 21.9705 20.926L15.0768 4.29843C14.8653 3.78826 15.1074 3.20321 15.6175 2.99169Z" stroke="#0d2c4c" stroke-width="2"/>
</svg>