<svg width="46" height="46" viewBox="0 0 46 46" fill="none" xmlns="http://www.w3.org/2000/svg">
<circle cx="23" cy="23" r="23" fill="#E8F0F3"/>
<path fill-rule="evenodd" clip-rule="evenodd" d="M28 15.9693C28 18.7137 25.7614 20.9385 23 20.9385C22.9483 20.9385 22.8967 20.9377 22.8454 20.9362V20.9385H18V16.0205H18.0003L18 15.9693C18 13.2248 20.2386 11 23 11C25.7614 11 28 13.2248 28 15.9693ZM18 31.0307C18 28.2863 20.2386 26.0615 23 26.0615C23.0517 26.0615 23.1033 26.0623 23.1546 26.0638V26.0615H28V30.9795H27.9997L28 31.0307C28 33.7752 25.7614 36 23 36C20.2386 36 18 33.7752 18 31.0307Z" fill="#0D2C4C"/>
</svg>