<svg width="444" height="55" viewBox="0 0 444 55" fill="none" xmlns="http://www.w3.org/2000/svg">
<path d="M268.536 28.5045C269.812 27.1048 270.589 25.2497 270.589 23.2109C270.589 21.0361 269.701 19.0671 268.27 17.6417C266.835 16.2201 264.853 15.3384 262.663 15.3384C260.614 15.3384 258.743 16.1098 257.334 17.3772C255.167 19.5336 254.782 22.039 254.726 26.2195C254.708 27.6338 254.726 29.2392 254.726 31.0907C256.59 31.0907 258.207 31.109 259.631 31.0907C263.843 31.0356 266.362 30.6535 268.533 28.5008L268.536 28.5045Z" fill="#0D2C4C"/>
<path d="M256.783 40.9285C255.507 42.3281 254.73 44.1833 254.73 46.2221C254.73 48.3969 255.614 50.3659 257.049 51.7913C258.484 53.2129 260.466 54.0946 262.652 54.0909C264.701 54.0909 266.569 53.3158 267.978 52.0484C270.145 49.8883 270.53 47.3866 270.585 43.2024C270.604 41.7881 270.585 40.1828 270.585 38.3313C268.725 38.3313 267.109 38.3129 265.685 38.3313C261.476 38.3864 258.957 38.7684 256.783 40.9248V40.9285Z" fill="#0D2C4C"/>
<path d="M63.2174 20.7936C59.2712 20.7936 56.0092 23.2623 53.8678 28.0343L52.1517 27.3546C54.4669 20.5402 60.218 15.3457 68.2806 15.3457C77.0311 15.3457 82.3495 20.7128 82.3495 29.14V46.4278C82.3495 48.5585 83.3776 49.6643 84.8385 49.6643C85.9518 49.6643 86.5546 49.2381 87.5828 48.0479L88.696 49.2418C87.1501 51.7104 84.0619 54.0946 79.9455 54.0946C76.1694 54.0946 72.5671 52.2211 71.2801 48.0479C69.22 51.1998 65.2738 54.0946 60.6433 54.0946C55.5802 54.0946 51.2937 50.8582 51.2937 45.5792C51.2937 39.7897 56.2681 37.2329 63.3062 34.4226L71.1987 31.4433V29.4853C71.1987 24.717 68.7947 20.7973 63.2211 20.7973L63.2174 20.7936ZM66.7347 35.5247C63.4763 36.8876 61.2425 38.6766 61.2425 42.8498C61.2425 46.3397 63.3876 48.8965 66.4758 48.8965C68.1068 48.8965 69.8229 48.1287 71.195 46.5968V33.8238L66.7347 35.5283V35.5247Z" fill="#0D2C4C"/>
<path d="M111.342 53.2386H91.6104V51.4496C95.2977 51.4496 95.9856 50.8545 95.9856 46.6813V22.7517C95.9856 18.5785 95.2977 17.9834 91.6104 17.9834V16.1943H107.051V22.8362C108.767 19.1736 113.228 15.3421 118.635 15.3421C126.527 15.3421 130.389 20.9626 130.389 27.7771V46.6813C130.389 50.8545 131.076 51.4496 134.764 51.4496V53.2386H115.033V51.4496C118.72 51.4496 119.323 50.8545 119.323 46.6813V29.309C119.323 23.3468 116.834 20.7092 112.973 20.7092C110.569 20.7092 108.338 22.1565 107.051 24.7978V46.685C107.051 50.8582 107.739 51.4533 111.342 51.4533V53.2423V53.2386Z" fill="#0D2C4C"/>
<path d="M153.596 54.0909L138.41 22.41C136.694 18.663 136.18 17.9834 132.918 17.9834V16.1943H153.337V17.9834C150.593 17.9834 149.221 18.1524 149.221 19.5997C149.221 20.2794 149.565 21.2161 150.164 22.4945L157.801 40.124L164.836 23.0051C165.35 21.6422 165.694 20.7055 165.694 19.9377C165.694 18.1487 163.893 17.9797 160.461 17.9797V16.1907H173.845V17.9797C170.413 17.9797 169.814 18.4903 167.754 23.0896L154.029 54.0872H153.6L153.596 54.0909Z" fill="#0D2C4C"/>
<path d="M184.412 20.7936C180.465 20.7936 177.203 23.2623 175.062 28.0343L173.346 27.3546C175.661 20.5402 181.412 15.3457 189.475 15.3457C198.225 15.3457 203.544 20.7128 203.544 29.14V46.4278C203.544 48.5585 204.572 49.6643 206.033 49.6643C207.146 49.6643 207.749 49.2381 208.777 48.0479L209.89 49.2418C208.344 51.7104 205.256 54.0946 201.14 54.0946C197.364 54.0946 193.761 52.2211 192.474 48.0479C190.414 51.1998 186.468 54.0946 181.838 54.0946C176.774 54.0946 172.488 50.8582 172.488 45.5792C172.488 39.7897 177.462 37.2329 184.5 34.4226L192.393 31.4433V29.4853C192.393 24.717 189.989 20.7973 184.415 20.7973L184.412 20.7936ZM187.929 35.5247C184.671 36.8876 182.437 38.6766 182.437 42.8498C182.437 46.3397 184.582 48.8965 187.67 48.8965C189.301 48.8965 191.017 48.1287 192.389 46.5968V33.8238L187.929 35.5283V35.5247Z" fill="#0D2C4C"/>
<path d="M32.0877 48.981C22.1352 48.981 12.0125 39.6134 12.0125 23.6884C12.0125 11.595 18.9619 3.50582 27.8825 3.50582C36.0191 3.50582 41.0749 8.5129 42.5432 16.1943H44.3961L43.7563 0.780026H42.4692C42.1585 2.23109 41.7184 3.93195 40.154 3.93195C38.1827 3.93195 34.4917 0.780026 27.3722 0.780026C12.5266 0.780026 0 12.2783 0 28.1188C0 43.9592 13.0407 54.0946 26.4254 54.0946C36.0339 54.0946 42.6393 49.4953 45.8163 44.8115L44.3591 43.3641C40.4979 47.8789 36.6368 48.9846 32.0914 48.9846L32.0877 48.981Z" fill="#0D2C4C"/>
<path d="M232.366 31.0135L226.444 27.8616C223.7 26.4987 221.725 25.2203 221.725 22.4945C221.725 19.7687 223.697 17.6417 227.044 17.6417C231.822 17.6417 235.838 21.4365 236.722 27.0093H238.368L237.703 16.1943H236.367C236.116 16.8997 235.739 17.4727 234.851 17.4727C233.479 17.4727 230.82 15.3421 226.359 15.3421C219.325 15.3421 213.234 19.9414 213.234 26.8404C213.234 31.7813 215.978 34.9296 220.098 36.9757L226.618 40.3811C229.965 42.0857 232.11 43.3604 232.11 46.3433C232.11 49.8369 229.621 51.7104 225.849 51.7104C219.954 51.7104 215.168 46.9825 214.28 40.5538H212.553L213.23 53.2423H214.576C214.854 52.2615 215.438 51.1998 216.329 51.1998C217.531 51.1998 220.449 54.0946 226.108 54.0946C234.085 54.0946 240.177 49.2418 240.177 41.9167C240.177 36.7223 236.918 33.4013 232.369 31.0172L232.366 31.0135Z" fill="#0D2C4C"/>
<path d="M321.98 45.7576H321.828C320.204 48.8384 318.175 51.1616 315.739 52.7273C313.304 54.2424 310.336 55 306.835 55C303.893 55 301.356 54.4444 299.225 53.3333C297.094 52.2222 295.344 50.7323 293.974 48.8636C292.604 46.9949 291.589 44.8485 290.929 42.4242C290.27 39.9495 289.94 37.3737 289.94 34.697C289.94 31.8182 290.295 29.1414 291.006 26.6667C291.716 24.1414 292.781 21.9697 294.202 20.1515C295.673 18.3333 297.5 16.8939 299.681 15.8333C301.863 14.7727 304.425 14.2424 307.368 14.2424C308.941 14.2424 310.488 14.4697 312.01 14.9242C313.532 15.3283 314.928 15.9343 316.196 16.7424C317.515 17.5505 318.657 18.5606 319.621 19.7727C320.585 20.9848 321.32 22.3485 321.828 23.8636H321.98V0H324.872V54.0909H321.98V45.7576ZM307.444 52.5C309.93 52.5 312.061 51.9949 313.837 50.9848C315.663 49.9747 317.16 48.6364 318.327 46.9697C319.545 45.303 320.433 43.4091 320.991 41.2879C321.599 39.1162 321.904 36.9192 321.904 34.697C321.904 32.4242 321.599 30.2273 320.991 28.1061C320.433 25.9343 319.57 24.0152 318.403 22.3485C317.236 20.6313 315.714 19.2677 313.837 18.2576C312.01 17.2475 309.854 16.7424 307.368 16.7424C304.78 16.7424 302.573 17.2475 300.747 18.2576C298.92 19.2172 297.398 20.5303 296.181 22.197C295.014 23.8636 294.151 25.7828 293.593 27.9545C293.086 30.1263 292.832 32.3737 292.832 34.697C292.832 36.9697 293.111 39.1919 293.669 41.3636C294.278 43.4848 295.166 45.3788 296.333 47.0455C297.551 48.7121 299.073 50.0505 300.899 51.0606C302.726 52.0202 304.907 52.5 307.444 52.5Z" fill="#0D2C4C"/>
<path d="M332.228 34.6212C332.228 31.8434 332.609 29.2424 333.37 26.8182C334.182 24.3434 335.349 22.1717 336.871 20.303C338.393 18.4343 340.27 16.9697 342.503 15.9091C344.735 14.798 347.297 14.2424 350.189 14.2424C353.081 14.2424 355.643 14.798 357.876 15.9091C360.108 16.9697 361.985 18.4343 363.507 20.303C365.029 22.1717 366.171 24.3434 366.932 26.8182C367.744 29.2424 368.15 31.8434 368.15 34.6212C368.15 37.399 367.744 40.0253 366.932 42.5C366.171 44.9747 365.029 47.1465 363.507 49.0152C361.985 50.8333 360.108 52.298 357.876 53.4091C355.643 54.4697 353.081 55 350.189 55C347.297 55 344.735 54.4697 342.503 53.4091C340.27 52.298 338.393 50.8333 336.871 49.0152C335.349 47.1465 334.182 44.9747 333.37 42.5C332.609 40.0253 332.228 37.399 332.228 34.6212ZM335.12 34.6212C335.12 36.9444 335.45 39.1919 336.11 41.3636C336.769 43.4848 337.733 45.3788 339.002 47.0455C340.27 48.7121 341.843 50.0505 343.72 51.0606C345.597 52.0202 347.754 52.5 350.189 52.5C352.624 52.5 354.781 52.0202 356.658 51.0606C358.535 50.0505 360.108 48.7121 361.376 47.0455C362.645 45.3788 363.609 43.4848 364.268 41.3636C364.928 39.1919 365.258 36.9444 365.258 34.6212C365.258 32.298 364.928 30.0758 364.268 27.9545C363.609 25.7828 362.645 23.8636 361.376 22.197C360.108 20.5303 358.535 19.2172 356.658 18.2576C354.781 17.2475 352.624 16.7424 350.189 16.7424C347.754 16.7424 345.597 17.2475 343.72 18.2576C341.843 19.2172 340.27 20.5303 339.002 22.197C337.733 23.8636 336.769 25.7828 336.11 27.9545C335.45 30.0758 335.12 32.298 335.12 34.6212Z" fill="#0D2C4C"/>
<path d="M404.384 27.197C404.231 25.4798 403.775 23.9646 403.014 22.6515C402.303 21.3384 401.365 20.2525 400.198 19.3939C399.031 18.5354 397.661 17.8788 396.088 17.4242C394.566 16.9697 392.917 16.7424 391.141 16.7424C388.706 16.7424 386.55 17.2475 384.673 18.2576C382.795 19.2172 381.223 20.5303 379.954 22.197C378.686 23.8131 377.722 25.6818 377.062 27.803C376.403 29.8737 376.073 32.0202 376.073 34.2424C376.073 36.8687 376.377 39.2929 376.986 41.5152C377.595 43.7374 378.534 45.6818 379.802 47.3485C381.07 48.9646 382.643 50.2273 384.52 51.1364C386.398 52.0455 388.605 52.5 391.141 52.5C392.968 52.5 394.642 52.197 396.164 51.5909C397.737 50.9848 399.107 50.1515 400.274 49.0909C401.492 48.0303 402.481 46.7677 403.242 45.303C404.003 43.7879 404.51 42.1465 404.764 40.3788H407.656C407.352 42.702 406.717 44.7727 405.753 46.5909C404.789 48.4091 403.572 49.9495 402.1 51.2121C400.629 52.4242 398.955 53.3586 397.078 54.0152C395.2 54.6717 393.222 55 391.141 55C387.945 55 385.205 54.4444 382.922 53.3333C380.69 52.1717 378.838 50.6313 377.367 48.7121C375.946 46.7929 374.881 44.596 374.17 42.1212C373.511 39.596 373.181 36.9697 373.181 34.2424C373.181 31.5152 373.561 28.9394 374.322 26.5152C375.134 24.0909 376.301 21.9697 377.823 20.1515C379.345 18.3333 381.223 16.8939 383.455 15.8333C385.687 14.7727 388.25 14.2424 391.141 14.2424C393.272 14.2424 395.251 14.5202 397.078 15.0758C398.955 15.5808 400.604 16.3636 402.024 17.4242C403.496 18.4848 404.688 19.8485 405.601 21.5152C406.515 23.1313 407.073 25.0253 407.276 27.197H404.384Z" fill="#0D2C4C"/>
<path d="M415.765 41.1364C415.867 42.9545 416.273 44.5707 416.983 45.9849C417.693 47.3485 418.607 48.5354 419.723 49.5455C420.89 50.5051 422.234 51.2374 423.756 51.7424C425.278 52.2475 426.927 52.5 428.703 52.5C429.971 52.5 431.316 52.399 432.737 52.197C434.208 51.9444 435.552 51.5152 436.77 50.9091C438.038 50.303 439.079 49.4697 439.89 48.4091C440.702 47.298 441.108 45.9091 441.108 44.2424C441.108 42.0707 440.448 40.4293 439.129 39.3182C437.81 38.2071 436.136 37.3485 434.106 36.7424C432.128 36.1364 429.971 35.6566 427.638 35.303C425.354 34.899 423.198 34.3182 421.169 33.5606C419.19 32.803 417.541 31.7424 416.222 30.3788C414.903 28.9646 414.243 26.9192 414.243 24.2424C414.243 22.3232 414.675 20.7323 415.537 19.4697C416.4 18.1566 417.49 17.1212 418.81 16.3636C420.179 15.6061 421.701 15.0758 423.376 14.7727C425.05 14.4192 426.724 14.2424 428.399 14.2424C430.428 14.2424 432.331 14.4697 434.106 14.9242C435.882 15.3788 437.404 16.1111 438.673 17.1212C439.992 18.1313 441.007 19.4192 441.717 20.9848C442.478 22.5505 442.858 24.4444 442.858 26.6667H439.966C439.966 24.899 439.662 23.3838 439.053 22.1212C438.495 20.8586 437.683 19.8485 436.618 19.0909C435.603 18.2828 434.386 17.702 432.965 17.3485C431.544 16.9444 430.022 16.7424 428.399 16.7424C427.079 16.7424 425.735 16.8687 424.365 17.1212C423.046 17.3737 421.854 17.803 420.788 18.4091C419.723 19.0152 418.835 19.798 418.125 20.7576C417.465 21.7172 417.135 22.8788 417.135 24.2424C417.135 25.8081 417.516 27.0707 418.277 28.0303C419.038 28.9899 420.027 29.7727 421.245 30.3788C422.513 30.9343 423.908 31.3889 425.431 31.7424C427.003 32.096 428.576 32.4495 430.149 32.803C432.077 33.1566 433.878 33.5859 435.552 34.0909C437.277 34.5455 438.749 35.202 439.966 36.0606C441.235 36.8687 442.224 37.9293 442.935 39.2424C443.645 40.5556 444 42.2222 444 44.2424C444 46.3636 443.518 48.1061 442.554 49.4697C441.59 50.8333 440.372 51.9444 438.901 52.803C437.43 53.6111 435.781 54.1667 433.954 54.4697C432.178 54.8232 430.428 55 428.703 55C426.471 55 424.39 54.697 422.462 54.0909C420.585 53.5354 418.936 52.6768 417.516 51.5151C416.095 50.303 414.979 48.8384 414.167 47.1212C413.355 45.404 412.924 43.4091 412.873 41.1364H415.765Z" fill="#0D2C4C"/>
</svg>
